<svg id="visual" viewBox="0 0 900 600" width="900" height="600" xmlns="http://www.w3.org/2000/svg" xmlns:xlink="http://www.w3.org/1999/xlink" version="1.1"><rect x="0" y="0" width="900" height="600" fill="#ffffff"></rect><path d="M0 361L21.5 369.3C43 377.7 86 394.3 128.8 403.7C171.7 413 214.3 415 257.2 419.8C300 424.7 343 432.3 385.8 431.8C428.7 431.3 471.3 422.7 514.2 416.8C557 411 600 408 642.8 409.3C685.7 410.7 728.3 416.3 771.2 414.8C814 413.3 857 404.7 878.5 400.3L900 396L900 601L878.5 601C857 601 814 601 771.2 601C728.3 601 685.7 601 642.8 601C600 601 557 601 514.2 601C471.3 601 428.7 601 385.8 601C343 601 300 601 257.2 601C214.3 601 171.7 601 128.8 601C86 601 43 601 21.5 601L0 601Z" fill="#51498c"></path><path d="M0 470L21.5 469.3C43 468.7 86 467.3 128.8 468.5C171.7 469.7 214.3 473.3 257.2 473.2C300 473 343 469 385.8 465.3C428.7 461.7 471.3 458.3 514.2 446.8C557 435.3 600 415.7 642.8 416.7C685.7 417.7 728.3 439.3 771.2 445C814 450.7 857 440.3 878.5 435.2L900 430L900 601L878.5 601C857 601 814 601 771.2 601C728.3 601 685.7 601 642.8 601C600 601 557 601 514.2 601C471.3 601 428.7 601 385.8 601C343 601 300 601 257.2 601C214.3 601 171.7 601 128.8 601C86 601 43 601 21.5 601L0 601Z" fill="#3c3a6d"></path><path d="M0 489L21.5 489.3C43 489.7 86 490.3 128.8 484C171.7 477.7 214.3 464.3 257.2 458.2C300 452 343 453 385.8 451.2C428.7 449.3 471.3 444.7 514.2 447.8C557 451 600 462 642.8 467.3C685.7 472.7 728.3 472.3 771.2 471.2C814 470 857 468 878.5 467L900 466L900 601L878.5 601C857 601 814 601 771.2 601C728.3 601 685.7 601 642.8 601C600 601 557 601 514.2 601C471.3 601 428.7 601 385.8 601C343 601 300 601 257.2 601C214.3 601 171.7 601 128.8 601C86 601 43 601 21.5 601L0 601Z" fill="#2a2b4f"></path><path d="M0 526L21.5 520.5C43 515 86 504 128.8 499.8C171.7 495.7 214.3 498.3 257.2 505.3C300 512.3 343 523.7 385.8 520.7C428.7 517.7 471.3 500.3 514.2 494.8C557 489.3 600 495.7 642.8 501.8C685.7 508 728.3 514 771.2 519.7C814 525.3 857 530.7 878.5 533.3L900 536L900 601L878.5 601C857 601 814 601 771.2 601C728.3 601 685.7 601 642.8 601C600 601 557 601 514.2 601C471.3 601 428.7 601 385.8 601C343 601 300 601 257.2 601C214.3 601 171.7 601 128.8 601C86 601 43 601 21.5 601L0 601Z" fill="#1b1c32"></path><path d="M0 555L21.5 550C43 545 86 535 128.8 530C171.7 525 214.3 525 257.2 527.7C300 530.3 343 535.7 385.8 542.2C428.7 548.7 471.3 556.3 514.2 557.5C557 558.7 600 553.3 642.8 549.5C685.7 545.7 728.3 543.3 771.2 543.7C814 544 857 547 878.5 548.5L900 550L900 601L878.5 601C857 601 814 601 771.2 601C728.3 601 685.7 601 642.8 601C600 601 557 601 514.2 601C471.3 601 428.7 601 385.8 601C343 601 300 601 257.2 601C214.3 601 171.7 601 128.8 601C86 601 43 601 21.5 601L0 601Z" fill="#0b0b17"></path></svg>